<svg viewBox="0 0 64 64" xmlns="http://www.w3.org/2000/svg"><defs><linearGradient id="prefix__a" x1=".5" x2=".5" y1="1" spreadMethod="reflect"><stop stop-color="#41bfec" offset="0"/><stop stop-color="#4cc5ef" offset=".232"/><stop stop-color="#6bd4f6" offset=".644"/><stop stop-color="#8ae4fd" offset="1"/></linearGradient><linearGradient id="prefix__b" x1=".06" x2=".574" y1=".94" y2=".426" spreadMethod="reflect"><stop stop-color="#c6effd" offset="0"/><stop stop-color="#b7ecfd" offset=".375"/><stop stop-color="#95e6fd" offset="1"/></linearGradient><linearGradient id="prefix__c" x1=".5" x2=".5" y1="1.014" y2=".014" spreadMethod="reflect"><stop stop-color="#42c6ee" offset="0"/><stop stop-color="#3bc3ed" offset=".48"/><stop stop-color="#2ebeea" offset="1"/></linearGradient><linearGradient id="prefix__d" x1=".5" x2=".5" y1="1" spreadMethod="reflect"><stop stop-color="#81dcf7" offset="0"/><stop stop-color="#8ce1f9" offset=".48"/><stop stop-color="#9ee8fd" offset="1"/></linearGradient><linearGradient id="prefix__e" x1=".5" x2=".5" y2="1" spreadMethod="reflect"><stop stop-color="#47c3ee" offset="0"/><stop stop-color="#32b5e8" offset=".98"/><stop stop-color="#32b5e8" offset="1"/></linearGradient></defs><path d="M50 58H16a3 3 0 01-3-3V9a3 3 0 013-3h20.757c.796 0 1.559.316 2.121.879l13.243 13.243c.563.562.879 1.325.879 2.121V55a3 3 0 01-3 3z" fill="url(#prefix__a)"/><path d="M52.121 20.122L38.878 6.879a3.012 3.012 0 00-.878-.6V18a3 3 0 003 3h11.721a2.974 2.974 0 00-.6-.878z" fill="url(#prefix__b)"/><path d="M41 21a3 3 0 01-3-3v3a3 3 0 003 3h12v-1.757c0-.434-.102-.855-.279-1.243H41z" fill="url(#prefix__c)"/><path d="M21.5 21H13V9a3 3 0 013-3h9.5a2.5 2.5 0 110 5h-5a2.5 2.5 0 100 5h1a2.5 2.5 0 110 5zm7.5-4a2 2 0 10-.001 3.999A2 2 0 0029 17z" fill="url(#prefix__d)"/><path d="M44 41h9v14a3 3 0 01-3 3H33a3 3 0 110-6h11.5a2.5 2.5 0 100-5H44a3 3 0 110-6zm-8 0a3 3 0 100 6 3 3 0 000-6z" fill="url(#prefix__e)"/></svg>