<svg enable-background="new 0 0 128 128" shape-rendering="crispEdges" version="1.1" viewBox="0 0 128 128" xml:space="preserve" xmlns="http://www.w3.org/2000/svg"><linearGradient id="b" x1="904" x2="904" y1="2632" y2="2560.6" gradientTransform="translate(-840 -2528)" gradientUnits="userSpaceOnUse"><stop stop-color="#ffc529" offset=".017"/><stop stop-color="#ffda6e" offset="1"/></linearGradient><path d="m17.074 32.622h93.852c2.802 0 5.074 2.222 5.074 4.961v61.533c0 2.747-2.217 4.883-5.074 4.883h-93.852c-2.814 0.044-5.074-2.092-5.074-4.84v-61.741c0-2.616 2.217-4.796 5.074-4.796z" fill="url(#b)"/><linearGradient id="a" x1="877.58" x2="877.58" y1="2569.4" y2="2552.1" gradientTransform="translate(-840 -2528)" gradientUnits="userSpaceOnUse"><stop stop-color="#d18b00" offset=".017"/><stop stop-color="#e09f00" offset="1"/></linearGradient><path d="m63.169 32.787s-6.78 5.844-8.613 7.283c-1.834 1.352-5.032 1.352-5.032 1.352h-37.524v-12.822s0-2.093 1.535-3.445c1.194-1.09 2.729-1.09 3.454-1.09 3.241-0.087 15.606-0.087 32.62 0 0 0 3.241 0 5.074 1.395 1.834 1.396 8.486 7.327 8.486 7.327z" fill="url(#a)"/><path d="M35.938,41.422H16v-3.999c0-2.62,1.859-4.801,4.245-4.801H36" fill="#FFF"/><path d="M36,32.622h26.98c0.12,0.108,0.19,0.166,0.19,0.166s-6.78,5.847-8.61,7.285 c-1.84,1.349-5.04,1.349-5.04,1.349H36" fill="#FFF"/></svg>